<?xml version="1.0" encoding="utf-8"?>
<!-- Generator: Adobe Illustrator 21.0.0, SVG Export Plug-In . SVG Version: 6.00 Build 0)  -->
<svg version="1.1" id="Ebene_2" xmlns="http://www.w3.org/2000/svg" xmlns:xlink="http://www.w3.org/1999/xlink" x="0px" y="0px"
	 viewBox="0 0 190.4 67" style="enable-background:new 0 0 190.4 67;" xml:space="preserve">
<style type="text/css">
	.st0{fill:#204485;}
	.st1{fill:#C20016;}
	.st2{fill:#FFFFFF;}
	.st3{opacity:0.7;fill:url(#SVGID_1_);}
	.st4{opacity:0.7;fill:url(#SVGID_2_);}
	.st5{fill:url(#SVGID_3_);}
	.st6{fill:url(#SVGID_4_);}
	.st7{fill:url(#SVGID_5_);}
	.st8{fill:url(#SVGID_6_);}
</style>
<g>
	<g>
		<path class="st0" d="M64.1,37.2h-2.2c-0.2,0-0.4-0.2-0.4-0.4V21.1c0-0.2,0.2-0.4,0.4-0.4h2.2c0.2,0,0.4,0.2,0.4,0.4v15.6
			C64.5,37,64.3,37.2,64.1,37.2z"/>
		<path class="st0" d="M79.8,37.2h-2.2c-0.5,0-1,0-1.4-0.8l-4.9-10.8c-0.1-0.1-0.1-0.2-0.2-0.2c-0.1,0-0.1,0-0.1,0.2v11.2
			c0,0.2-0.2,0.4-0.4,0.4h-1.9c-0.2,0-0.4-0.2-0.4-0.4V21.6c0-0.5,0.4-0.9,0.9-0.9h2.4c0.5,0,0.7,0.1,1,0.7l5.2,11.4
			c0,0.1,0.1,0.2,0.2,0.2c0,0,0.1-0.1,0.1-0.2V21.1c0-0.2,0.2-0.4,0.4-0.4h1.9c0.2,0,0.4,0.2,0.4,0.4v15.2
			C80.7,36.8,80.3,37.2,79.8,37.2z"/>
		<path class="st0" d="M93.9,23.3H90v13.5c0,0.2-0.2,0.4-0.4,0.4h-2.2c-0.2,0-0.4-0.2-0.4-0.4V23.3H83c-0.2,0-0.4-0.2-0.4-0.4v-1.8
			c0-0.2,0.2-0.4,0.4-0.4h10.9c0.2,0,0.4,0.2,0.4,0.4v1.8C94.3,23.1,94.1,23.3,93.9,23.3z"/>
		<path class="st0" d="M105.7,37.1c-0.7,0.1-1.6,0.3-4.2,0.3c-2.9,0-5.1-0.8-5.1-4.6v-7.8c0-3.8,2.2-4.6,5.1-4.6
			c2.6,0,3.5,0.2,4.2,0.3c0.3,0,0.4,0.2,0.4,0.5v1.4c0,0.2-0.2,0.4-0.4,0.4h-4.5c-1.3,0-1.8,0.4-1.8,1.9v2.4h6
			c0.2,0,0.4,0.2,0.4,0.4v1.6c0,0.2-0.2,0.4-0.4,0.4h-6v2.9c0,1.5,0.5,1.9,1.8,1.9h4.5c0.2,0,0.4,0.2,0.4,0.4v1.4
			C106.1,36.9,106,37.1,105.7,37.1z"/>
		<path class="st0" d="M121.2,37.2h-2.7c-0.2,0-0.3-0.2-0.4-0.4l-3.2-5.9h-0.3c-0.6,0-1.5-0.1-2-0.1v6c0,0.2-0.2,0.4-0.4,0.4h-2.2
			c-0.2,0-0.4-0.2-0.4-0.4V21.5c0-0.4,0.3-0.6,0.7-0.7c1.2-0.2,2.7-0.3,4.4-0.3c3.4,0,6.4,1.2,6.4,5v0.2c0,2.4-1.2,3.8-3,4.5
			l3.5,6.5c0,0.1,0,0.1,0,0.2C121.5,37.1,121.4,37.2,121.2,37.2z M117.9,25.6c0-1.7-1.1-2.4-3.3-2.4c-0.5,0-1.6,0-2,0.1v5
			c0.4,0,1.6,0.1,2,0.1c2.3,0,3.3-0.6,3.3-2.6V25.6z"/>
		<path class="st1" d="M70.6,57.8c-0.9,0.2-1.8,0.3-3.7,0.3c-2.7,0-5.9-1.5-5.9-6.9v-3.1c0-5.4,3.1-6.9,5.9-6.9
			c1.4,0,2.8,0.2,3.7,0.4c0.2,0,0.4,0.1,0.4,0.3v1.1c0,0.1,0,0.2-0.3,0.2c0,0,0,0-0.1,0c-0.8-0.1-2.4-0.2-3.7-0.2
			c-2.2,0-3.9,1.3-3.9,5v3.1c0,3.7,1.7,5,3.9,5c1.3,0,2.9-0.1,3.7-0.2c0,0,0.1,0,0.1,0c0.2,0,0.4,0.1,0.4,0.4v0.9
			C71.1,57.7,70.9,57.8,70.6,57.8z"/>
		<path class="st1" d="M85.2,58h-1.3c-0.2,0-0.3-0.2-0.4-0.3l-1.4-5.1h-5.8l-1.4,5.1c0,0.2-0.2,0.3-0.4,0.3h-1.3
			c-0.2,0-0.4-0.2-0.4-0.4c0,0,0-0.1,0-0.2L77,43c0.4-1.4,1.4-1.7,2.3-1.7c0.8,0,1.9,0.3,2.2,1.7l4.1,14.5c0,0,0,0.1,0,0.2
			C85.6,57.8,85.5,58,85.2,58z M79.7,43.5c-0.1-0.2-0.2-0.4-0.4-0.4c-0.2,0-0.4,0.2-0.4,0.4l-2,7.3h4.9L79.7,43.5z"/>
		<path class="st1" d="M99.3,58h-1.4c-0.3,0-0.4,0-0.6-0.3l-4-6.6c-0.1,0-0.1,0-0.2,0c-0.1,0-0.2,0-0.4,0c-0.7,0-1.3,0-2.4-0.1v6.5
			c0,0.2-0.2,0.4-0.4,0.4h-1.2c-0.2,0-0.4-0.2-0.4-0.4V42c0-0.3,0.1-0.4,0.5-0.5c1-0.1,2.6-0.2,3.9-0.2c3.5,0,6.2,1.2,6.2,4.8v0.2
			c0,2.5-1.5,4-3.5,4.5l4,6.8c0,0.1,0.1,0.1,0.1,0.2C99.6,57.8,99.5,58,99.3,58z M97,46.1c0-2.2-1.4-3-4.2-3c-0.7,0-1.9,0-2.4,0.1
			v6.1c1,0,1.9,0,2.4,0c2.7,0,4.2-0.7,4.2-3.1V46.1z"/>
		<path class="st1" d="M113.9,58h-1.3c-0.2,0-0.3-0.2-0.4-0.3l-1.4-5.1H105l-1.4,5.1c0,0.2-0.2,0.3-0.4,0.3h-1.3
			c-0.2,0-0.4-0.2-0.4-0.4c0,0,0-0.1,0-0.2l4.1-14.5c0.4-1.4,1.4-1.7,2.3-1.7c0.8,0,1.9,0.3,2.2,1.7l4.1,14.5c0,0,0,0.1,0,0.2
			C114.2,57.8,114.1,58,113.9,58z M108.3,43.5c-0.1-0.2-0.2-0.4-0.4-0.4c-0.2,0-0.4,0.2-0.4,0.4l-2,7.3h4.9L108.3,43.5z"/>
		<path class="st1" d="M127.2,42l-4.1,14.5c-0.4,1.4-1.4,1.7-2.3,1.7c-0.8,0-1.9-0.3-2.3-1.7L114.4,42c0,0,0-0.1,0-0.1
			c0-0.2,0.2-0.4,0.4-0.4h1.3c0.2,0,0.4,0.2,0.4,0.3l3.9,14.2c0.1,0.3,0.2,0.5,0.4,0.5c0.2,0,0.3-0.2,0.4-0.5l3.9-14.2
			c0-0.2,0.2-0.3,0.4-0.3h1.3c0.2,0,0.4,0.2,0.4,0.4C127.2,41.9,127.2,41.9,127.2,42z"/>
		<path class="st1" d="M139.8,58h-1.3c-0.2,0-0.3-0.2-0.4-0.3l-1.4-5.1h-5.8l-1.4,5.1c0,0.2-0.2,0.3-0.4,0.3h-1.3
			c-0.2,0-0.4-0.2-0.4-0.4c0,0,0-0.1,0-0.2l4.1-14.5c0.4-1.4,1.4-1.7,2.3-1.7c0.8,0,1.9,0.3,2.2,1.7l4.1,14.5c0,0,0,0.1,0,0.2
			C140.2,57.8,140,58,139.8,58z M134.2,43.5c-0.1-0.2-0.2-0.4-0.4-0.4c-0.2,0-0.4,0.2-0.4,0.4l-2,7.3h4.9L134.2,43.5z"/>
		<path class="st1" d="M153.9,58h-1.4c-0.4,0-0.6-0.1-0.7-0.4l-6.9-13c0,0,0-0.1-0.1-0.1c0,0,0,0,0,0.1v13c0,0.2-0.2,0.4-0.4,0.4
			h-1.2c-0.2,0-0.4,0-0.4-0.3V42.1c0-0.4,0.3-0.6,0.6-0.6h1.2c0.6,0,0.7,0.1,0.9,0.4l6.8,13l0,0.1c0,0,0,0,0-0.1v-13
			c0-0.2,0.2-0.4,0.4-0.4h1.2c0.2,0,0.4,0.2,0.4,0.4v15.4C154.5,57.7,154.2,58,153.9,58z"/>
		<path class="st1" d="M160.2,58h-1.2c-0.2,0-0.4-0.2-0.4-0.4V41.9c0-0.2,0.2-0.4,0.4-0.4h1.2c0.2,0,0.4,0.2,0.4,0.4v15.6
			C160.6,57.8,160.4,58,160.2,58z"/>
		<path class="st1" d="M175.6,58h-1.4c-0.4,0-0.6-0.1-0.7-0.4l-6.9-13c0,0,0-0.1-0.1-0.1c0,0,0,0,0,0.1v13c0,0.2-0.2,0.4-0.4,0.4
			H165c-0.2,0-0.4,0-0.4-0.3V42.1c0-0.4,0.3-0.6,0.6-0.6h1.2c0.6,0,0.7,0.1,0.9,0.4l6.8,13l0,0.1c0,0,0,0,0-0.1v-13
			c0-0.2,0.2-0.4,0.4-0.4h1.2c0.2,0,0.4,0.2,0.4,0.4v15.4C176.2,57.7,175.9,58,175.6,58z"/>
		<path class="st1" d="M189.8,57.8c-1.1,0.2-2.3,0.3-4.4,0.3c-2.8,0-5.8-1.8-5.8-6.9v-3c0-5.4,3.1-6.9,6-6.9c2.1,0,3.4,0.2,4.2,0.3
			c0.2,0,0.4,0.1,0.4,0.3v1.1c0,0.2-0.1,0.2-0.3,0.2c0,0-0.1,0-0.1,0c-1.3-0.1-2.3-0.2-4.2-0.2c-2.1,0-3.9,1.1-3.9,5.1v3
			c0,3.7,1.7,5.1,3.7,5.1c1.4,0,2.3-0.1,2.8-0.1v-6.4c0-0.2,0.2-0.4,0.4-0.4h1.2c0.2,0,0.4,0.2,0.4,0.4v7.5
			C190.2,57.6,190,57.8,189.8,57.8z"/>
	</g>
	<g>
		<g>
			<path class="st2" d="M54.5,63.1c0,1.8-1.5,3.3-3.3,3.3H3.5c-1.8,0-3.3-1.5-3.3-3.3V3.5c0-1.8,1.5-3.3,3.3-3.3h47.8
				c1.8,0,3.3,1.5,3.3,3.3l0,12c0,1.5-1,2.8-2.4,3.1l0,0c-11.5,2.8-16.7,10.9-16.7,20.6c0,9.8,7.8,18.1,16.9,20.8l0,0
				C53.6,60.5,54.5,61.7,54.5,63.1"/>
			<path class="st0" d="M51.3,66.6H3.5c-1.9,0-3.5-1.6-3.5-3.5V3.5C0,1.6,1.6,0,3.5,0h47.8c1.9,0,3.5,1.6,3.5,3.5l0,12
				c0,1.6-1,2.9-2.5,3.4c-10.5,2.6-16.6,10-16.6,20.4c0,9.1,7,17.7,16.8,20.6c1.4,0.5,2.3,1.8,2.3,3.3
				C54.8,65.1,53.2,66.6,51.3,66.6z M3.5,0.4c-1.7,0-3.1,1.4-3.1,3.1v59.6c0,1.7,1.4,3.1,3.1,3.1h47.8c1.7,0,3.1-1.4,3.1-3.1
				c0-1.3-0.8-2.5-2-2.9c-9.9-2.9-17.1-11.8-17.1-21c0-10.6,6.2-18.2,16.9-20.8c1.3-0.4,2.2-1.6,2.2-2.9l0-12c0-1.7-1.4-3.1-3.1-3.1
				H3.5z"/>
		</g>
	</g>
	<path class="st0" d="M3.2,63.3c0,0.1,0.1,0.1,0.1,0.1v0h47.8v0c0.1,0,0.1-0.1,0.1-0.1h0v-0.5H3.8V15.8h47.5v-0.5
		c0-0.1-0.1-0.1-0.1-0.1H3.3c-0.1,0-0.1,0.1-0.1,0.1"/>
	<path class="st0" d="M51.1,12.4c0.1,0,0.1,0,0.1-0.1V3.5c0-0.1-0.1-0.1-0.1-0.1l-47.8,0c-0.1,0-0.1,0.1-0.1,0.1l0,8.7
		c0,0.1,0.1,0.1,0.1,0.1L51.1,12.4z"/>
	<linearGradient id="SVGID_1_" gradientUnits="userSpaceOnUse" x1="27.2129" y1="3.9361" x2="27.2129" y2="11.7243">
		<stop  offset="0" style="stop-color:#FFFFFF"/>
		<stop  offset="0.1009" style="stop-color:#E0E5EE;stop-opacity:0.8356"/>
		<stop  offset="0.3222" style="stop-color:#91A3C3;stop-opacity:0.4748"/>
		<stop  offset="0.6135" style="stop-color:#204485;stop-opacity:0"/>
	</linearGradient>
	<path class="st3" d="M50.5,11.7c0.1,0,0.1,0,0.1-0.1V4c0-0.1-0.1-0.1-0.1-0.1l-46.7,0C3.8,3.9,3.8,4,3.8,4.1v7.6
		c0,0.1,0,0.1,0.1,0.1L50.5,11.7z"/>
	<linearGradient id="SVGID_2_" gradientUnits="userSpaceOnUse" x1="27.2129" y1="11.7243" x2="27.2129" y2="8.3375">
		<stop  offset="0" style="stop-color:#132B55"/>
		<stop  offset="0.5989" style="stop-color:#1A3970;stop-opacity:0.4011"/>
		<stop  offset="1" style="stop-color:#204485;stop-opacity:0"/>
	</linearGradient>
	<path class="st4" d="M3.8,8.3v3.3c0,0.1,0,0.1,0.1,0.1l46.7,0c0.1,0,0.1,0,0.1-0.1V8.3C41.1,8.3,13.4,8.3,3.8,8.3z"/>
	<path class="st1" d="M32.5,39.4c0-15.9,12-21.4,17.1-23l0-0.1H26.8l0,0c-1.8,2.3-7.7,10.5-7.7,21.3c0,14.3,6,22.5,7.8,24.6l0,0H50
		l0-0.1C44.8,60.3,32.5,54.1,32.5,39.4z"/>
	<linearGradient id="SVGID_3_" gradientUnits="userSpaceOnUse" x1="15.2206" y1="62.2789" x2="15.2206" y2="16.3879">
		<stop  offset="0.2086" style="stop-color:#BDBDBD"/>
		<stop  offset="0.5337" style="stop-color:#D8D8D8"/>
		<stop  offset="1" style="stop-color:#BDBDBD"/>
	</linearGradient>
	<path class="st5" d="M4.4,16.4h21.5c-1.7,2.2-7.7,10.5-7.7,21.3c0,14.2,6,22.4,7.8,24.6H4.4V16.4z"/>
	<linearGradient id="SVGID_4_" gradientUnits="userSpaceOnUse" x1="32.5874" y1="37.9585" x2="32.5874" y2="17.2745">
		<stop  offset="0" style="stop-color:#FFFFFF;stop-opacity:0"/>
		<stop  offset="1" style="stop-color:#FFFFFF"/>
	</linearGradient>
	<path class="st6" d="M31.4,38c0.7-12.8,9.7-18.7,13.8-20.7H27.1C24.9,20.3,20,28,20,37.7c0,0.1,0,0.2,0,0.3H31.4z"/>
	<linearGradient id="SVGID_5_" gradientUnits="userSpaceOnUse" x1="32.8827" y1="40.6861" x2="32.8827" y2="61.3928">
		<stop  offset="0" style="stop-color:#8F130B;stop-opacity:0"/>
		<stop  offset="3.340240e-02" style="stop-color:#8E130B;stop-opacity:3.340200e-02"/>
		<stop  offset="0.7423" style="stop-color:#8F130B"/>
	</linearGradient>
	<path class="st7" d="M31.7,40.7c0.7,12.8,9.7,18.7,13.8,20.7H27.4c-2.2-3.1-7.1-10.7-7.1-20.4c0-0.1,0-0.2,0-0.3H31.7z"/>
	<linearGradient id="SVGID_6_" gradientUnits="userSpaceOnUse" x1="14.8046" y1="61.3935" x2="14.8046" y2="17.2745">
		<stop  offset="0" style="stop-color:#FFFFFF"/>
		<stop  offset="1.690655e-03" style="stop-color:#FEFEFE"/>
		<stop  offset="5.368530e-02" style="stop-color:#E5E5E5"/>
		<stop  offset="0.1074" style="stop-color:#D2D2D2"/>
		<stop  offset="0.1638" style="stop-color:#C8C8C8"/>
		<stop  offset="0.227" style="stop-color:#C4C4C4"/>
		<stop  offset="0.3152" style="stop-color:#DBDBDB"/>
		<stop  offset="0.4409" style="stop-color:#F5F5F5"/>
		<stop  offset="0.5153" style="stop-color:#FFFFFF"/>
	</linearGradient>
	<path class="st8" d="M24.3,17.3H5.2v44.1h19.2c-2.3-3.1-7.1-11-7.1-23.7C17.3,28,22,20.3,24.3,17.3z"/>
</g>
</svg>
